# xmcd
#
# Track frame offsets:
#	150
#	10725
#	25875
#	47550
#	57525
#	72450
#	95325
#	107250
#	124650
#	139050
#	150750
#	166950
#	183600
#	205509
#	226734
#
# Disc length: 3289 seconds
#
# Revision: 1
# Processed by: cddbd v1.5.2PL0 Copyright (c) Steve Scherf et al.
# Submitted via: audiograbber 1.83.01
#
DISCID=b60cd70f
DTITLE=Willie Nelson - Country Music by Willie Nelson
DYEAR=2010
DGENRE=Country
TTITLE0=Man With The Blues
TTITLE1=Seaman's Blues
TTITLE2=Dark As A Dungeon
TTITLE3=Gotta Walk Alone
TTITLE4=Satan Your Kingdom Must Come Do
TTITLE5=My Baby's Gone
TTITLE6=Freight Train Boogie
TTITLE7=Satisfied Mind
TTITLE8=You Done Me Wrong
TTITLE9=Pistol Packin' Mama
TTITLE10=Ocean Of Diamonds
TTITLE11=Drinking Champagne
TTITLE12=I Am A Pilgrim
TTITLE13=House Of Gold
TTITLE14=Nobody's Fault But Mine
EXTD=
EXTT0=
EXTT1=
EXTT2=
EXTT3=
EXTT4=
EXTT5=
EXTT6=
EXTT7=
EXTT8=
EXTT9=
EXTT10=
EXTT11=
EXTT12=
EXTT13=
EXTT14=
PLAYORDER=
